<mxfile host="app.diagrams.net" modified="2022-06-15T23:28:26.062Z" agent="5.0 (Windows)" etag="UgDeO4RvsDreS7E-5TtL" version="17.2.4" type="github">
  <diagram id="Gw2AhV8y6EhH6cRce8T4" name="Page-1">
    <mxGraphModel dx="1422" dy="790" grid="1" gridSize="10" guides="1" tooltips="1" connect="1" arrows="1" fold="1" page="1" pageScale="1" pageWidth="827" pageHeight="1169" math="0" shadow="0">
      <root>
        <mxCell id="0" />
        <mxCell id="1" parent="0" />
        <mxCell id="NcQn1OaxDkeoGMydKXZ7-26" value="Table" style="shape=table;startSize=30;container=1;collapsible=1;childLayout=tableLayout;fixedRows=1;rowLines=0;fontStyle=1;align=center;resizeLast=1;" vertex="1" parent="1">
          <mxGeometry x="39" y="30" width="750" height="250" as="geometry" />
        </mxCell>
        <mxCell id="NcQn1OaxDkeoGMydKXZ7-27" value="" style="shape=tableRow;horizontal=0;startSize=0;swimlaneHead=0;swimlaneBody=0;fillColor=none;collapsible=0;dropTarget=0;points=[[0,0.5],[1,0.5]];portConstraint=eastwest;top=0;left=0;right=0;bottom=1;" vertex="1" parent="NcQn1OaxDkeoGMydKXZ7-26">
          <mxGeometry y="30" width="750" height="30" as="geometry" />
        </mxCell>
        <mxCell id="NcQn1OaxDkeoGMydKXZ7-28" value="PK" style="shape=partialRectangle;connectable=0;fillColor=none;top=0;left=0;bottom=0;right=0;fontStyle=1;overflow=hidden;" vertex="1" parent="NcQn1OaxDkeoGMydKXZ7-27">
          <mxGeometry width="30" height="30" as="geometry">
            <mxRectangle width="30" height="30" as="alternateBounds" />
          </mxGeometry>
        </mxCell>
        <mxCell id="NcQn1OaxDkeoGMydKXZ7-29" value="UniqueID" style="shape=partialRectangle;connectable=0;fillColor=none;top=0;left=0;bottom=0;right=0;align=left;spacingLeft=6;fontStyle=5;overflow=hidden;" vertex="1" parent="NcQn1OaxDkeoGMydKXZ7-27">
          <mxGeometry x="30" width="100" height="30" as="geometry">
            <mxRectangle width="100" height="30" as="alternateBounds" />
          </mxGeometry>
        </mxCell>
        <mxCell id="NcQn1OaxDkeoGMydKXZ7-30" style="shape=partialRectangle;connectable=0;fillColor=none;top=0;left=0;bottom=0;right=0;align=left;spacingLeft=6;fontStyle=5;overflow=hidden;" vertex="1" parent="NcQn1OaxDkeoGMydKXZ7-27">
          <mxGeometry x="130" width="620" height="30" as="geometry">
            <mxRectangle width="620" height="30" as="alternateBounds" />
          </mxGeometry>
        </mxCell>
        <mxCell id="NcQn1OaxDkeoGMydKXZ7-31" style="shape=tableRow;horizontal=0;startSize=0;swimlaneHead=0;swimlaneBody=0;fillColor=none;collapsible=0;dropTarget=0;points=[[0,0.5],[1,0.5]];portConstraint=eastwest;top=0;left=0;right=0;bottom=1;" vertex="1" parent="NcQn1OaxDkeoGMydKXZ7-26">
          <mxGeometry y="60" width="750" height="30" as="geometry" />
        </mxCell>
        <mxCell id="NcQn1OaxDkeoGMydKXZ7-32" style="shape=partialRectangle;connectable=0;fillColor=none;top=0;left=0;bottom=0;right=0;fontStyle=1;overflow=hidden;" vertex="1" parent="NcQn1OaxDkeoGMydKXZ7-31">
          <mxGeometry width="30" height="30" as="geometry">
            <mxRectangle width="30" height="30" as="alternateBounds" />
          </mxGeometry>
        </mxCell>
        <mxCell id="NcQn1OaxDkeoGMydKXZ7-33" style="shape=partialRectangle;connectable=0;fillColor=none;top=0;left=0;bottom=0;right=0;align=left;spacingLeft=6;fontStyle=5;overflow=hidden;" vertex="1" parent="NcQn1OaxDkeoGMydKXZ7-31">
          <mxGeometry x="30" width="100" height="30" as="geometry">
            <mxRectangle width="100" height="30" as="alternateBounds" />
          </mxGeometry>
        </mxCell>
        <mxCell id="NcQn1OaxDkeoGMydKXZ7-34" style="shape=partialRectangle;connectable=0;fillColor=none;top=0;left=0;bottom=0;right=0;align=left;spacingLeft=6;fontStyle=5;overflow=hidden;" vertex="1" parent="NcQn1OaxDkeoGMydKXZ7-31">
          <mxGeometry x="130" width="620" height="30" as="geometry">
            <mxRectangle width="620" height="30" as="alternateBounds" />
          </mxGeometry>
        </mxCell>
        <mxCell id="NcQn1OaxDkeoGMydKXZ7-35" value="" style="shape=tableRow;horizontal=0;startSize=0;swimlaneHead=0;swimlaneBody=0;fillColor=none;collapsible=0;dropTarget=0;points=[[0,0.5],[1,0.5]];portConstraint=eastwest;top=0;left=0;right=0;bottom=0;" vertex="1" parent="NcQn1OaxDkeoGMydKXZ7-26">
          <mxGeometry y="90" width="750" height="30" as="geometry" />
        </mxCell>
        <mxCell id="NcQn1OaxDkeoGMydKXZ7-36" value="" style="shape=partialRectangle;connectable=0;fillColor=none;top=0;left=0;bottom=0;right=0;editable=1;overflow=hidden;" vertex="1" parent="NcQn1OaxDkeoGMydKXZ7-35">
          <mxGeometry width="30" height="30" as="geometry">
            <mxRectangle width="30" height="30" as="alternateBounds" />
          </mxGeometry>
        </mxCell>
        <mxCell id="NcQn1OaxDkeoGMydKXZ7-37" value="Row 1" style="shape=partialRectangle;connectable=0;fillColor=none;top=0;left=0;bottom=0;right=0;align=left;spacingLeft=6;overflow=hidden;" vertex="1" parent="NcQn1OaxDkeoGMydKXZ7-35">
          <mxGeometry x="30" width="100" height="30" as="geometry">
            <mxRectangle width="100" height="30" as="alternateBounds" />
          </mxGeometry>
        </mxCell>
        <mxCell id="NcQn1OaxDkeoGMydKXZ7-38" value="HOla" style="shape=partialRectangle;connectable=0;fillColor=none;top=0;left=0;bottom=0;right=0;align=left;spacingLeft=6;overflow=hidden;" vertex="1" parent="NcQn1OaxDkeoGMydKXZ7-35">
          <mxGeometry x="130" width="620" height="30" as="geometry">
            <mxRectangle width="620" height="30" as="alternateBounds" />
          </mxGeometry>
        </mxCell>
        <mxCell id="NcQn1OaxDkeoGMydKXZ7-39" value="" style="shape=tableRow;horizontal=0;startSize=0;swimlaneHead=0;swimlaneBody=0;fillColor=none;collapsible=0;dropTarget=0;points=[[0,0.5],[1,0.5]];portConstraint=eastwest;top=0;left=0;right=0;bottom=0;" vertex="1" parent="NcQn1OaxDkeoGMydKXZ7-26">
          <mxGeometry y="120" width="750" height="30" as="geometry" />
        </mxCell>
        <mxCell id="NcQn1OaxDkeoGMydKXZ7-40" value="" style="shape=partialRectangle;connectable=0;fillColor=none;top=0;left=0;bottom=0;right=0;editable=1;overflow=hidden;" vertex="1" parent="NcQn1OaxDkeoGMydKXZ7-39">
          <mxGeometry width="30" height="30" as="geometry">
            <mxRectangle width="30" height="30" as="alternateBounds" />
          </mxGeometry>
        </mxCell>
        <mxCell id="NcQn1OaxDkeoGMydKXZ7-41" value="Row 2" style="shape=partialRectangle;connectable=0;fillColor=none;top=0;left=0;bottom=0;right=0;align=left;spacingLeft=6;overflow=hidden;" vertex="1" parent="NcQn1OaxDkeoGMydKXZ7-39">
          <mxGeometry x="30" width="100" height="30" as="geometry">
            <mxRectangle width="100" height="30" as="alternateBounds" />
          </mxGeometry>
        </mxCell>
        <mxCell id="NcQn1OaxDkeoGMydKXZ7-42" style="shape=partialRectangle;connectable=0;fillColor=none;top=0;left=0;bottom=0;right=0;align=left;spacingLeft=6;overflow=hidden;" vertex="1" parent="NcQn1OaxDkeoGMydKXZ7-39">
          <mxGeometry x="130" width="620" height="30" as="geometry">
            <mxRectangle width="620" height="30" as="alternateBounds" />
          </mxGeometry>
        </mxCell>
        <mxCell id="NcQn1OaxDkeoGMydKXZ7-43" value="" style="shape=tableRow;horizontal=0;startSize=0;swimlaneHead=0;swimlaneBody=0;fillColor=none;collapsible=0;dropTarget=0;points=[[0,0.5],[1,0.5]];portConstraint=eastwest;top=0;left=0;right=0;bottom=0;" vertex="1" parent="NcQn1OaxDkeoGMydKXZ7-26">
          <mxGeometry y="150" width="750" height="30" as="geometry" />
        </mxCell>
        <mxCell id="NcQn1OaxDkeoGMydKXZ7-44" value="" style="shape=partialRectangle;connectable=0;fillColor=none;top=0;left=0;bottom=0;right=0;editable=1;overflow=hidden;" vertex="1" parent="NcQn1OaxDkeoGMydKXZ7-43">
          <mxGeometry width="30" height="30" as="geometry">
            <mxRectangle width="30" height="30" as="alternateBounds" />
          </mxGeometry>
        </mxCell>
        <mxCell id="NcQn1OaxDkeoGMydKXZ7-45" value="Row 3" style="shape=partialRectangle;connectable=0;fillColor=none;top=0;left=0;bottom=0;right=0;align=left;spacingLeft=6;overflow=hidden;" vertex="1" parent="NcQn1OaxDkeoGMydKXZ7-43">
          <mxGeometry x="30" width="100" height="30" as="geometry">
            <mxRectangle width="100" height="30" as="alternateBounds" />
          </mxGeometry>
        </mxCell>
        <mxCell id="NcQn1OaxDkeoGMydKXZ7-46" style="shape=partialRectangle;connectable=0;fillColor=none;top=0;left=0;bottom=0;right=0;align=left;spacingLeft=6;overflow=hidden;" vertex="1" parent="NcQn1OaxDkeoGMydKXZ7-43">
          <mxGeometry x="130" width="620" height="30" as="geometry">
            <mxRectangle width="620" height="30" as="alternateBounds" />
          </mxGeometry>
        </mxCell>
        <mxCell id="NcQn1OaxDkeoGMydKXZ7-51" style="shape=tableRow;horizontal=0;startSize=0;swimlaneHead=0;swimlaneBody=0;fillColor=none;collapsible=0;dropTarget=0;points=[[0,0.5],[1,0.5]];portConstraint=eastwest;top=0;left=0;right=0;bottom=0;" vertex="1" parent="NcQn1OaxDkeoGMydKXZ7-26">
          <mxGeometry y="180" width="750" height="30" as="geometry" />
        </mxCell>
        <mxCell id="NcQn1OaxDkeoGMydKXZ7-52" style="shape=partialRectangle;connectable=0;fillColor=none;top=0;left=0;bottom=0;right=0;editable=1;overflow=hidden;" vertex="1" parent="NcQn1OaxDkeoGMydKXZ7-51">
          <mxGeometry width="30" height="30" as="geometry">
            <mxRectangle width="30" height="30" as="alternateBounds" />
          </mxGeometry>
        </mxCell>
        <mxCell id="NcQn1OaxDkeoGMydKXZ7-53" style="shape=partialRectangle;connectable=0;fillColor=none;top=0;left=0;bottom=0;right=0;align=left;spacingLeft=6;overflow=hidden;" vertex="1" parent="NcQn1OaxDkeoGMydKXZ7-51">
          <mxGeometry x="30" width="100" height="30" as="geometry">
            <mxRectangle width="100" height="30" as="alternateBounds" />
          </mxGeometry>
        </mxCell>
        <mxCell id="NcQn1OaxDkeoGMydKXZ7-54" style="shape=partialRectangle;connectable=0;fillColor=none;top=0;left=0;bottom=0;right=0;align=left;spacingLeft=6;overflow=hidden;" vertex="1" parent="NcQn1OaxDkeoGMydKXZ7-51">
          <mxGeometry x="130" width="620" height="30" as="geometry">
            <mxRectangle width="620" height="30" as="alternateBounds" />
          </mxGeometry>
        </mxCell>
        <mxCell id="NcQn1OaxDkeoGMydKXZ7-47" style="shape=tableRow;horizontal=0;startSize=0;swimlaneHead=0;swimlaneBody=0;fillColor=none;collapsible=0;dropTarget=0;points=[[0,0.5],[1,0.5]];portConstraint=eastwest;top=0;left=0;right=0;bottom=0;" vertex="1" parent="NcQn1OaxDkeoGMydKXZ7-26">
          <mxGeometry y="210" width="750" height="30" as="geometry" />
        </mxCell>
        <mxCell id="NcQn1OaxDkeoGMydKXZ7-48" style="shape=partialRectangle;connectable=0;fillColor=none;top=0;left=0;bottom=0;right=0;editable=1;overflow=hidden;" vertex="1" parent="NcQn1OaxDkeoGMydKXZ7-47">
          <mxGeometry width="30" height="30" as="geometry">
            <mxRectangle width="30" height="30" as="alternateBounds" />
          </mxGeometry>
        </mxCell>
        <mxCell id="NcQn1OaxDkeoGMydKXZ7-49" value="" style="shape=partialRectangle;connectable=0;fillColor=none;top=0;left=0;bottom=0;right=0;align=left;spacingLeft=6;overflow=hidden;" vertex="1" parent="NcQn1OaxDkeoGMydKXZ7-47">
          <mxGeometry x="30" width="100" height="30" as="geometry">
            <mxRectangle width="100" height="30" as="alternateBounds" />
          </mxGeometry>
        </mxCell>
        <mxCell id="NcQn1OaxDkeoGMydKXZ7-50" value="" style="shape=partialRectangle;connectable=0;fillColor=none;top=0;left=0;bottom=0;right=0;align=left;spacingLeft=6;overflow=hidden;" vertex="1" parent="NcQn1OaxDkeoGMydKXZ7-47">
          <mxGeometry x="130" width="620" height="30" as="geometry">
            <mxRectangle width="620" height="30" as="alternateBounds" />
          </mxGeometry>
        </mxCell>
      </root>
    </mxGraphModel>
  </diagram>
</mxfile>
